<svg width="31" height="25" viewBox="0 0 31 25" fill="none" xmlns="http://www.w3.org/2000/svg">
<path d="M30.7532 2.96546C29.6223 3.46658 28.4074 3.80518 27.1302 3.95822C28.448 3.16969 29.434 1.92863 29.904 0.466611C28.6659 1.20203 27.3108 1.71968 25.8977 1.99707C24.9475 0.98245 23.6888 0.309944 22.3172 0.0839617C20.9455 -0.142021 19.5377 0.0911637 18.3121 0.747312C17.0866 1.40346 16.112 2.44586 15.5396 3.71268C14.9672 4.97949 14.829 6.39985 15.1466 7.75322C12.6379 7.62725 10.1836 6.97519 7.94319 5.83934C5.70276 4.70349 3.72619 3.10924 2.14177 1.16006C1.60002 2.09459 1.28851 3.1781 1.28851 4.33203C1.28791 5.37084 1.54372 6.39374 2.03326 7.30997C2.5228 8.2262 3.23092 9.00743 4.0948 9.58435C3.09293 9.55247 2.11316 9.28176 1.23704 8.79474V8.876C1.23694 10.333 1.74092 11.7451 2.66346 12.8728C3.586 14.0005 4.87029 14.7743 6.29839 15.0628C5.36899 15.3144 4.39458 15.3514 3.44876 15.1712C3.85169 16.4248 4.63655 17.5211 5.69348 18.3065C6.7504 19.0919 8.02648 19.5272 9.34305 19.5513C7.10809 21.3058 4.34792 22.2575 1.50657 22.2533C1.00325 22.2534 0.500361 22.224 0.000488281 22.1653C2.88462 24.0196 6.24197 25.0038 9.67082 25C21.2779 25 27.6232 15.3865 27.6232 7.04894C27.6232 6.77806 27.6165 6.50447 27.6043 6.23359C28.8385 5.34102 29.9039 4.23573 30.7505 2.96952L30.7532 2.96546V2.96546Z" fill="white"/>
</svg>
