<svg width="458" height="435" viewBox="0 0 458 435" fill="none" xmlns="http://www.w3.org/2000/svg">
<path opacity="0.7" d="M26.9501 127.519C46.317 97.0359 75.424 71.8935 99.7011 54.3675C111.838 45.6059 122.763 38.7506 130.654 34.086C134.6 31.7538 137.786 29.9693 139.986 28.7681C141.086 28.1675 141.939 27.7127 142.517 27.4082C142.806 27.256 143.026 27.1413 143.174 27.0648C143.248 27.0265 143.304 26.9977 143.341 26.9786L143.383 26.9571L143.387 26.9546C143.389 26.9539 143.39 26.9531 143.392 26.9524C235.115 -14.9899 301.311 -2.82441 345.729 31.0747C390.168 64.9897 412.858 120.696 417.472 165.916C421.054 201.03 431.334 226.946 440.494 250.038C443.153 256.743 445.718 263.21 447.997 269.594C453.064 283.785 456.721 297.574 456.892 312.692C457.062 327.807 453.746 344.267 444.843 363.797C427.045 402.841 397.392 424.248 362.783 431.297C328.162 438.347 288.561 431.034 250.886 412.589C221.7 398.3 190.315 390.679 160.099 383.342C151.243 381.192 142.487 379.066 133.917 376.803C96.0852 366.816 61.8549 354.173 38.3457 325.094C-8.71238 266.886 -11.7765 188.473 26.9501 127.519Z" fill="url(#paint0_linear_7_2057)" fill-opacity="0.7" stroke="white" stroke-width="0.5"/>
<path d="M78.1418 24.3231H43.27V35.4213H78.1418V24.3231Z" fill="#EBEBEB"/>
<path d="M318.148 155.757H283.276V166.855H318.148V155.757Z" fill="#EBEBEB"/>
<path d="M58.6926 10.3288C52.9004 10.4279 38.0531 10.6759 32.4594 10.7453H23.8208L24.277 10.2891V21.3874L23.7811 20.8915C29.5732 20.8915 44.3412 20.9708 49.9349 21.0502L58.6529 21.1592L58.4148 21.3874L58.6529 10.2891L58.6926 10.3288ZM58.6926 10.3288L58.9207 21.427V21.6651H58.6826C54.3286 21.7246 45.5908 21.8238 41.2467 21.8535L23.8108 21.9229H23.3149V21.427V10.3288V9.88245H23.7612H32.5585C38.1126 9.94195 52.8905 10.1899 58.633 10.2891L58.6926 10.3288Z" fill="#EBEBEB"/>
<path d="M157.367 249.423C151.575 249.522 136.728 249.77 131.134 249.829H122.495L122.951 249.383V260.481L122.456 259.985C128.248 259.985 143.016 260.055 148.609 260.134L157.327 260.243L157.089 260.481L157.327 249.383L157.367 249.423ZM157.367 249.423L157.605 260.521V260.749H157.367C153.013 260.749 144.285 260.908 139.931 260.938L122.495 261.007H121.999V260.511V249.413V248.957H122.446L131.243 249.006C136.797 249.066 151.585 249.314 157.317 249.413L157.367 249.423Z" fill="#EBEBEB"/>
<path d="M137.918 235.409C132.126 235.508 117.278 235.756 111.685 235.815H103.046L103.502 235.369V246.467L103.006 245.971C108.798 245.971 123.566 246.041 129.16 246.12L137.878 246.229L137.64 246.467L137.878 235.369L137.918 235.409ZM137.918 235.409L138.156 246.507V246.735H137.918C133.564 246.785 124.826 246.894 120.482 246.923L103.046 246.993H102.55V246.497V235.399V234.942H103.006H111.804C117.358 235.002 132.136 235.25 137.878 235.349L137.918 235.409Z" fill="#EBEBEB"/>
<path d="M118.548 249.403H83.676V260.501H118.548V249.403Z" fill="#EBEBEB"/>
<path d="M434.11 10.3287H399.238V21.427H434.11V10.3287Z" fill="#EBEBEB"/>
<path d="M414.661 353.046H379.789V364.145H414.661V353.046Z" fill="#EBEBEB"/>
<path d="M434.11 339.052C428.318 339.151 413.47 339.399 407.876 339.469H399.238L399.694 339.012V350.111L399.198 349.615C404.99 349.615 419.758 349.694 425.352 349.773L434.07 349.883L433.832 350.111L434.07 339.012L434.11 339.052ZM434.11 339.052L434.348 350.15V350.388H434.11C429.756 350.448 421.028 350.547 416.674 350.587L399.238 350.646H398.742V350.14L398.792 339.042V338.596H399.238H408.035C413.589 338.655 428.377 338.913 434.11 339.002V339.052Z" fill="#EBEBEB"/>
<path d="M78.1419 353.046C72.3497 353.146 57.5024 353.393 51.9087 353.463H43.2701L43.7263 353.007V364.105L43.2304 363.609L60.6663 363.678C65.0104 363.678 73.7581 363.817 78.1022 363.877L77.8642 364.105L78.1022 353.007L78.1419 353.046ZM78.1419 353.046L78.3799 364.145V364.383H78.1419C73.7878 364.442 65.0501 364.541 60.706 364.581L43.2701 364.641H42.7742V364.135V353.036V352.57H43.2205H52.0178C57.5719 352.63 72.3497 352.888 78.0923 352.977L78.1419 353.046Z" fill="#EBEBEB"/>
<path d="M181.428 84.9322L179.623 97.8256C179.474 99.1155 179.064 100.362 178.419 101.489C177.774 102.616 176.907 103.6 175.87 104.381C174.833 105.163 173.648 105.726 172.388 106.037C171.127 106.347 169.816 106.398 168.535 106.187C165.962 105.818 163.639 104.445 162.074 102.37C160.51 100.294 159.83 97.6833 160.184 95.1081L163.07 74.4786C163.07 74.2802 163.298 74.31 163.328 74.1116C163.159 73.8835 163.159 73.8835 163.179 73.6851C163.609 71.1405 164.996 68.8568 167.056 67.3022C169.116 65.7477 171.692 65.0399 174.257 65.3242C177.193 65.7716 180.188 65.6319 183.068 64.9131C185.949 64.1944 188.659 62.9109 191.04 61.1372C193.421 59.3634 195.427 57.1346 196.94 54.58C198.453 52.0254 199.444 49.1958 199.856 46.2553C200.267 43.3148 200.091 40.3218 199.337 37.4499C198.583 34.578 197.267 31.8843 195.464 29.525C193.662 27.1657 191.409 25.1877 188.836 23.7057C186.263 22.2236 183.421 21.2671 180.476 20.8914C176.625 20.3398 172.696 20.812 169.085 22.2605C165.474 23.7091 162.308 26.0829 159.906 29.1432C159.101 30.1761 158.1 31.0394 156.96 31.6832C155.819 32.3271 154.563 32.7388 153.263 32.8947C151.963 33.0505 150.645 32.9473 149.385 32.5911C148.125 32.235 146.948 31.6328 145.922 30.8194C144.915 30.018 144.078 29.0254 143.457 27.8988C142.836 26.7722 142.444 25.5338 142.304 24.2551C142.164 22.9764 142.278 21.6825 142.64 20.4482C143.002 19.2139 143.605 18.0634 144.414 17.0631C148.714 11.5735 154.31 7.23825 160.7 4.44678C167.09 1.6553 174.074 0.495091 181.023 1.07038C187.973 1.64567 194.67 3.93845 200.514 7.7427C206.358 11.5469 211.166 16.7435 214.504 22.8654C217.843 28.9873 219.609 35.8428 219.642 42.8158C219.676 49.7889 217.977 56.6611 214.697 62.8149C211.418 68.9688 206.661 74.2115 200.854 78.072C195.047 81.9325 188.372 84.2898 181.428 84.9322V84.9322ZM175.348 128.363L174.843 131.934C174.698 133.226 174.293 134.475 173.65 135.605C173.008 136.736 172.142 137.723 171.105 138.508C170.069 139.293 168.884 139.859 167.622 140.171C166.359 140.484 165.047 140.536 163.764 140.324C161.189 139.96 158.863 138.59 157.297 136.512C155.731 134.435 155.054 131.822 155.413 129.246L155.909 125.675C156.297 123.111 157.674 120.802 159.745 119.241C161.816 117.68 164.416 116.992 166.987 117.324C168.266 117.489 169.5 117.906 170.615 118.552C171.731 119.199 172.707 120.061 173.485 121.089C174.263 122.117 174.829 123.289 175.149 124.538C175.469 125.787 175.537 127.088 175.348 128.363V128.363Z" fill="#EBEBEB"/>
<path d="M85.3423 146.662L88.2284 157.185C88.5427 158.225 88.6423 159.318 88.5211 160.398C88.3998 161.477 88.0603 162.521 87.5232 163.465C86.9861 164.41 86.2626 165.235 85.3967 165.891C84.5307 166.547 83.5404 167.02 82.4859 167.282C80.3869 167.857 78.1455 167.577 76.2529 166.502C74.3602 165.427 72.9709 163.646 72.3894 161.549L67.7576 144.688C67.7576 144.539 67.8866 144.49 67.837 144.321C67.6287 144.212 67.6287 144.212 67.5791 144.044C67.0643 141.946 67.3726 139.73 68.4406 137.852C69.5086 135.974 71.2553 134.577 73.3217 133.947C75.7926 133.379 78.1231 132.317 80.1725 130.824C82.222 129.331 83.9481 127.439 85.2467 125.262C86.5454 123.084 87.3898 120.666 87.7291 118.153C88.0684 115.641 87.8954 113.085 87.2208 110.641C86.5461 108.197 85.3837 105.915 83.8035 103.932C82.2233 101.95 80.2581 100.307 78.0262 99.1042C75.7944 97.9012 73.3421 97.1624 70.8171 96.9325C68.2921 96.7025 65.7467 96.986 63.3342 97.7661C60.1917 98.6171 57.3294 100.282 55.036 102.593C52.7426 104.904 51.0994 107.778 50.2722 110.927C50.0013 111.992 49.5213 112.992 48.8601 113.87C48.1988 114.747 47.3696 115.484 46.4207 116.038C45.4718 116.592 44.4222 116.952 43.333 117.096C42.2438 117.24 41.1367 117.166 40.0764 116.878C39.0375 116.595 38.0648 116.109 37.2142 115.448C36.3637 114.788 35.652 113.966 35.1202 113.029C34.5884 112.093 34.247 111.061 34.1154 109.992C33.9839 108.923 34.0648 107.839 34.3537 106.801C35.8357 101.155 38.6973 95.9647 42.6815 91.6977C46.6656 87.4307 51.6475 84.2203 57.1794 82.3551C62.7113 80.4899 68.6199 80.0283 74.3744 81.0117C80.1289 81.9952 85.5488 84.3929 90.1473 87.9894C94.7458 91.5858 98.3788 96.2685 100.72 101.616C103.061 106.964 104.036 112.81 103.559 118.629C103.081 124.447 101.166 130.056 97.9846 134.95C94.8033 139.845 90.4556 143.873 85.3324 146.672L85.3423 146.662ZM95.0818 182.069L95.8852 184.975C96.1991 186.018 96.2976 187.114 96.1746 188.195C96.0516 189.277 95.7096 190.323 95.1696 191.268C94.6296 192.214 93.9028 193.039 93.0334 193.695C92.1641 194.351 91.1704 194.823 90.1129 195.082C88.0127 195.651 85.7726 195.367 83.8811 194.291C81.9896 193.216 80.6003 191.435 80.0163 189.339L79.203 186.423C78.6602 184.324 78.9561 182.096 80.0281 180.211C81.1 178.326 82.8638 176.933 84.9456 176.327C85.9876 176.024 87.0797 175.933 88.1575 176.059C89.2353 176.185 90.2769 176.525 91.2208 177.061C92.1647 177.596 92.9918 178.315 93.6533 179.175C94.3147 180.036 94.7971 181.02 95.0719 182.069H95.0818Z" fill="#EBEBEB"/>
<path d="M136.649 193.971L136.222 202.044C136.194 202.849 136.003 203.64 135.66 204.368C135.318 205.097 134.831 205.749 134.229 206.284C133.627 206.819 132.923 207.226 132.159 207.481C131.395 207.736 130.588 207.833 129.785 207.767C128.175 207.68 126.665 206.957 125.586 205.758C124.508 204.559 123.949 202.981 124.033 201.37L124.707 188.476C124.707 188.357 124.846 188.367 124.856 188.238C124.866 188.109 124.727 188.109 124.737 187.981C124.866 186.385 125.6 184.899 126.79 183.827C127.979 182.756 129.534 182.18 131.134 182.218C132.958 182.315 134.782 182.052 136.504 181.444C138.226 180.836 139.811 179.894 141.169 178.674C142.527 177.453 143.631 175.977 144.419 174.329C145.206 172.682 145.661 170.895 145.758 169.072C145.855 167.248 145.592 165.424 144.984 163.702C144.376 161.98 143.435 160.395 142.214 159.037C140.993 157.679 139.517 156.575 137.869 155.787C136.222 155 134.435 154.545 132.612 154.448C130.201 154.313 127.798 154.814 125.642 155.902C123.487 156.99 121.656 158.627 120.333 160.646C119.893 161.331 119.322 161.922 118.651 162.383C117.98 162.844 117.225 163.167 116.428 163.334C115.631 163.5 114.809 163.506 114.01 163.351C113.211 163.196 112.451 162.883 111.774 162.432C111.11 161.99 110.539 161.421 110.096 160.758C109.652 160.095 109.344 159.351 109.189 158.568C109.034 157.786 109.036 156.98 109.193 156.198C109.351 155.416 109.662 154.673 110.108 154.011C112.472 150.385 115.7 147.404 119.503 145.334C123.305 143.265 127.561 142.173 131.89 142.156C136.219 142.139 140.484 143.198 144.302 145.238C148.12 147.278 151.371 150.235 153.763 153.843C156.156 157.45 157.614 161.596 158.007 165.907C158.4 170.217 157.716 174.558 156.016 178.539C154.316 182.52 151.654 186.017 148.268 188.714C144.882 191.411 140.879 193.224 136.619 193.991L136.649 193.971ZM135.21 221.156L135.091 223.388C135.068 224.193 134.882 224.986 134.543 225.717C134.205 226.448 133.721 227.103 133.122 227.642C132.523 228.181 131.821 228.592 131.058 228.851C130.295 229.111 129.488 229.212 128.684 229.15C127.072 229.063 125.56 228.339 124.482 227.138C123.403 225.936 122.845 224.356 122.932 222.743L123.051 220.512C123.158 218.908 123.886 217.409 125.081 216.333C126.275 215.257 127.842 214.689 129.448 214.749C130.25 214.782 131.038 214.975 131.765 215.317C132.491 215.658 133.142 216.142 133.679 216.739C134.216 217.336 134.628 218.034 134.891 218.793C135.154 219.551 135.263 220.355 135.21 221.156V221.156Z" fill="#DBDBDB"/>
<path d="M375.682 47.2734H296.318V126.637H375.682V47.2734Z" fill="white"/>
<path d="M292.183 43.1276V130.744H379.808V43.1276H292.183ZM375.683 126.618H296.338V47.2734H375.683V126.618Z" fill="#DBDBDB"/>
<path d="M369.96 111.255V83.8213H308.101V111.255H369.96Z" fill="#EBEBEB"/>
<path d="M351.84 102.804V71.1064H320.142V102.804H351.84Z" fill="#C7C7C7"/>
<path d="M383.191 43.1376H379.809V130.763H383.191V43.1376Z" fill="#C7C7C7"/>
<path d="M416.694 163.899H337.33V243.264H416.694V163.899Z" fill="white"/>
<path d="M371.696 176.595H350.977V236.46H371.696V176.595Z" fill="#C7C7C7"/>
<path d="M333.204 159.764V247.439H420.82V159.764H333.204ZM416.694 243.264H337.35V163.919H416.694V243.264Z" fill="#DBDBDB"/>
<path d="M392.861 187.732H361.173V219.421H392.861V187.732Z" fill="#EBEBEB"/>
<path d="M424.212 159.764H420.83V247.389H424.212V159.764Z" fill="#C7C7C7"/>
<path d="M28.0657 399.919L78.2906 399.681L128.515 399.592L228.965 399.423L329.415 399.592L379.64 399.681L429.865 399.919L379.64 400.157L329.415 400.246L228.965 400.415L128.515 400.246L78.2906 400.157L28.0657 399.919Z" fill="#263238"/>
<path d="M266.436 206.993C316.482 259.291 378.797 368.657 366.548 390.477C352.901 414.746 283.237 341.452 283.544 337.237C283.792 334.053 259.89 267.811 241.72 219.679C223.55 171.546 254.058 194.06 266.436 206.993Z" fill="#D3766A"/>
<path d="M283.068 337.257C281.005 330.185 248.444 242.867 239.171 215.265C229.898 187.663 239.002 179.302 266.287 204.871C293.571 230.44 352.941 315.348 366.092 360.138C378.767 403.281 356.66 402.944 327.789 382.711C304.144 366.138 283.068 337.257 283.068 337.257Z" fill="#6DDAD3"/>
<path d="M236.979 193.564C236.791 193.495 236.602 193.425 236.404 193.336C236.482 193.091 236.585 192.855 236.711 192.632C237.088 192.781 237.475 192.92 237.862 193.049C240.986 194.04 244.804 194.368 247.552 192.216C247.862 191.973 248.147 191.7 248.405 191.402L249.158 191.779C246.361 195.131 240.986 195.032 236.979 193.564ZM258.551 198.127L257.787 197.522C257.351 197.733 256.914 197.932 256.478 198.117C250.23 200.864 242.513 203.631 237.108 208.273L237.346 209.265C240.217 206.788 243.439 204.749 246.907 203.215C250.725 201.37 254.752 199.912 258.551 198.127ZM265.493 216.733C267.335 214.377 269.379 212.187 271.603 210.187C271.405 209.969 271.196 209.761 270.998 209.552C265.295 214.511 261.209 222.089 255.784 226.899C252.8 229.667 249.215 231.704 245.31 232.85C245.399 233.108 245.489 233.365 245.588 233.623C248.293 232.85 250.846 231.619 253.136 229.983C258.263 226.502 261.695 221.494 265.503 216.693L265.493 216.733ZM293.671 236.371C285.419 247.568 270.452 250.256 257.321 252.239C255.734 252.477 254.147 252.735 252.56 253.053C252.669 253.34 252.769 253.638 252.878 253.935C258.422 252.805 264.125 252.329 269.639 251.069C278.833 248.966 288.483 244.612 294.246 237.114L293.671 236.371ZM304.908 332.903C299.235 331.485 294.077 333.369 289.088 336.007C287.452 336.88 285.796 337.802 284.129 338.665L284.695 339.399C291.419 335.938 297.896 331.623 305.642 334.143C308.171 334.966 310.601 336.582 311.592 339.102C312.882 342.384 311.434 345.806 309.143 348.236C305.939 351.618 301.565 352.967 297.33 354.564L298.064 355.387L301.724 353.959C306.772 351.975 312.703 348.286 313.07 342.216C313.338 337.326 309.351 334.004 304.918 332.903H304.908ZM285.171 272.403C289.138 266.759 292.857 260.898 296.854 255.245C298.58 252.795 300.395 250.286 302.379 247.935L301.813 247.171C300.752 248.421 299.75 249.7 298.778 250.99C294.752 256.336 291.141 261.979 287.392 267.513C281.739 275.854 275.104 285.247 266.396 291.029C266.505 291.336 266.614 291.634 266.733 291.941C274.191 286.992 280.192 279.405 285.181 272.393L285.171 272.403ZM287.154 287.28C286.847 289.702 287.2 292.162 288.178 294.399C289.156 296.636 290.722 298.566 292.708 299.985C297.33 303.159 302.498 301.205 305.78 297.138C307.764 294.738 309.123 291.981 310.858 289.442C312.866 286.456 315.356 283.824 318.228 281.656C319.915 280.407 321.772 279.405 323.742 278.681L323.177 277.818C321.948 278.286 320.766 278.867 319.646 279.554C314.042 282.965 310.63 288.232 307.199 293.637C305.433 296.394 303.311 299.33 300.048 300.372C298.656 300.761 297.184 300.769 295.788 300.393C294.392 300.018 293.123 299.274 292.113 298.239C287.353 293.796 287.045 286.962 290.636 281.736C294.424 276.201 300.98 273.226 307.179 271.242C310.353 270.251 313.626 269.398 316.829 268.376L316.284 267.573C309.837 269.646 302.964 271.094 297.439 274.367C292.689 277.193 288.077 281.597 287.204 287.3L287.154 287.28ZM339.72 304.448C337.039 307.683 333.858 310.469 330.298 312.7C324.487 316.558 317.805 318.903 310.858 319.523C303.986 320.145 297.138 318.096 291.737 313.801C287.025 310.012 282.81 305.311 276.562 304.279C274.791 303.985 272.987 303.949 271.206 304.17C271.335 304.517 271.454 304.855 271.583 305.162C274.036 304.89 276.518 305.147 278.863 305.916C282.156 307.017 284.873 309.268 287.452 311.5C289.849 313.76 292.482 315.755 295.307 317.45C298.086 318.939 301.109 319.916 304.233 320.337C310.467 321.095 316.792 320.242 322.601 317.857C328.88 315.378 335.733 311.113 340.295 305.46L339.72 304.448ZM339.77 390.13C340.692 390.626 341.604 391.122 342.497 391.518C345.558 392.213 348.499 393.356 351.225 394.91C352.375 395.233 353.545 395.485 354.726 395.664C351.709 393.776 348.475 392.257 345.096 391.141C343.362 390.628 341.581 390.296 339.779 390.15L339.77 390.13ZM344.729 313.235L344.292 312.462C335.921 314.257 328.106 320.247 324.992 327.874C322.532 333.895 324 339.776 326.598 345.489C328.232 348.683 329.666 351.976 330.893 355.347C331.871 358.448 332.415 361.669 332.51 364.918C332.727 371.188 331.129 377.387 327.908 382.771L328.681 383.306C331.164 379.229 332.715 374.653 333.224 369.907C333.889 363.894 333.033 357.809 330.734 352.213C328.027 345.628 323.425 339.141 324.783 331.663C326.529 322.717 335.386 315.209 344.768 313.255L344.729 313.235ZM366.608 362.062C363.9 362.933 361.123 363.573 358.306 363.976C354.934 364.393 350.868 364.244 348.884 361.001C347.456 358.66 347.714 355.655 348.487 353.136C350.183 347.641 354.627 344.487 358.822 341.006C358.713 340.728 358.584 340.45 358.455 340.173C356.343 341.908 354.121 343.545 352.217 345.37C348.805 348.643 346.266 353.84 347.069 358.66C348.061 364.71 354.21 365.553 359.318 364.76C361.858 364.29 364.364 363.647 366.816 362.835C366.826 362.617 366.727 362.349 366.647 362.082L366.608 362.062Z" fill="white"/>
<path opacity="0.1" d="M327.789 382.711C304.144 366.148 283.068 337.257 283.068 337.257C281.015 330.185 248.435 242.867 239.171 215.265C235.749 205.059 234.827 197.492 236.414 193.297L327.789 382.711Z" fill="black"/>
<path d="M281.461 399.74H88.1887C88.1887 399.74 127.722 246.11 193.032 182.535C201.79 174.006 235.898 175.444 243.763 188.288C273.229 236.46 281.997 399.056 281.461 399.74Z" fill="#6DDAD3"/>
<path d="M256.885 313.672C249.287 324.463 257.549 339.161 269.659 341.7C272.147 342.207 274.718 342.122 277.167 341.452L277.256 342.444C274.996 343.06 272.632 343.202 270.314 342.86C259.543 341.184 250.478 329.709 253.364 318.78C255.585 310.26 264.274 304.329 272.882 304.061C272.882 304.418 272.972 304.765 273.021 305.122C272.281 305.132 271.542 305.192 270.81 305.301C268.046 305.692 265.389 306.635 262.997 308.073C260.605 309.511 258.526 311.415 256.885 313.672V313.672ZM96.4903 372.406L96.1927 372.158C96.0836 372.486 95.9844 372.813 95.8853 373.15C103.433 379.389 104.99 390.626 107.41 399.76H108.402C105.823 390.189 104.415 379.151 96.4903 372.406ZM128.793 316.865C134.695 316.488 140.695 314.515 144.285 309.566C147.062 305.747 148.51 300.372 146.457 295.909C144.077 290.741 138.265 289.373 133.068 289.501C130.817 289.551 128.595 289.769 126.383 290.017L125.967 291.009C129.572 290.414 133.239 290.291 136.876 290.642C140.07 291.078 143.214 292.477 144.999 295.274C145.708 296.487 146.17 297.829 146.357 299.221C146.544 300.614 146.454 302.029 146.09 303.387C144.583 309.883 139.287 313.979 132.979 315.348C127.395 316.558 121.712 315.903 116.118 315.1L115.761 316.002C120.066 316.718 124.431 317.007 128.793 316.865V316.865ZM137.115 389.158C131.481 388.166 122.436 393.542 119.401 386.182C117.12 380.668 120.393 374.509 123.884 370.363C128.139 365.335 133.633 361.576 139.058 357.916C149.076 351.142 173.345 330.403 161.761 321.616C150.96 313.434 137.085 337.306 128.962 344.795C121.781 351.4 111.268 357.381 100.993 357.232L100.695 358.114C111.08 358.293 121.345 352.382 129.061 345.985C139.217 337.574 149.224 315.705 160.957 322.41C170.697 327.974 152.537 347.482 142.48 354.415C137.412 357.916 132.146 361.199 127.524 365.325C123.438 368.955 119.431 373.438 118.191 378.913C117.278 382.959 117.745 388.156 121.861 390.279C124.479 391.637 127.444 391.122 130.212 390.596C133.693 389.922 136.956 389.515 140.189 391.27C141.803 392.16 143.217 393.372 144.343 394.83C145.469 396.289 146.283 397.964 146.735 399.75H147.796C147.796 399.75 147.796 399.75 147.796 399.701C146.437 394.672 142.312 390.13 137.085 389.168L137.115 389.158ZM207.82 266.74C205.379 265.332 202.585 264.658 199.77 264.797C196.956 264.936 194.242 265.882 191.951 267.523C186.992 271.034 183.947 276.707 181.617 282.182C179.018 288.301 176.658 295.075 171.599 299.608C168.862 302.078 164.548 304.24 161.186 301.592C158.994 299.866 158.21 296.821 158.081 294.133C157.893 288.381 161.324 282.946 164.756 278.602C168.307 274.089 172.452 270.092 176.033 265.599C179.355 261.433 182.271 256.673 183.055 251.317C183.442 248.669 183.055 245.803 180.883 244.027C179.007 242.698 176.691 242.144 174.416 242.48C168.783 243.026 163.973 247.122 160.581 251.406C158.689 253.835 157.029 256.435 155.622 259.172C154.084 262.098 152.944 265.222 151.387 268.098C149.581 271.47 146.477 273.107 142.728 271.956C140.263 271.142 138.124 269.556 136.629 267.434C136.49 267.721 136.351 268.009 136.222 268.297C138.979 271.679 143.105 274.317 147.499 272.889C150.286 271.976 151.783 269.457 152.934 266.938C154.263 263.963 155.552 261.057 157.119 258.24C160.263 252.577 164.637 246.775 170.846 244.265C173.454 243.214 176.797 242.788 179.385 244.146C182.985 246.041 182.529 250.464 181.587 253.807C178.433 264.885 168.009 271.887 161.751 281.101C158.894 285.326 156.524 290.424 157.199 295.651C157.813 300.352 161.166 304.726 166.373 303.585C172.492 302.256 176.479 295.799 178.969 290.583C181.805 284.632 183.709 278.274 187.746 272.998C191.783 267.721 197.981 264.191 204.696 266.482C211.887 268.932 216.003 276.033 216.27 283.342C216.766 296.702 207.344 307.761 197.743 315.824C188.5 323.57 178.056 329.878 169.507 338.457C160.035 348.002 153.872 360.331 151.922 373.636C150.722 381.799 150.732 391.618 154.035 399.721H155.284C154.307 397.32 153.582 394.823 153.122 392.272C150.583 378.645 153.678 363.887 160.501 351.935C167.077 340.421 177.411 332.536 187.875 324.77C197.079 317.936 206.719 310.815 212.541 300.689C218.77 290.007 220.247 273.672 207.79 266.75L207.82 266.74ZM240.024 329.808C239.918 326.778 239.108 323.815 237.656 321.153C236.205 318.492 234.153 316.205 231.663 314.475C229.407 312.925 226.743 312.076 224.006 312.036C221.269 311.995 218.581 312.765 216.28 314.247C211.51 317.302 208.425 322.707 207.245 328.132C205.529 336.017 206.957 344.11 207.116 352.064C207.379 367.315 203.259 382.32 195.244 395.297C194.302 396.815 193.26 398.273 192.189 399.74H193.538C196.766 395.328 199.456 390.547 201.552 385.498C204.454 378.765 206.426 371.668 207.414 364.402C208.455 356.746 207.969 349.238 207.562 341.591C207.175 334.232 207.414 326.525 211.708 320.237C215.487 314.703 222.092 311.311 228.648 314.068C235.204 316.826 238.883 323.808 239.022 330.751C239.419 345.102 229.104 357.152 222.033 368.707C218.661 374.201 215.636 380.013 214.217 386.341C213.235 390.751 213.087 395.306 213.781 399.77H214.773C213.97 394.705 214.267 389.526 215.645 384.586C219.285 371.692 228.777 361.566 234.837 349.873C238.021 343.644 240.431 336.82 239.994 329.818L240.024 329.808ZM268.836 373.448C265.146 369.044 259.801 366.118 253.959 366.694C248.603 367.219 243.902 370.661 242.751 376.066C241.432 382.314 244.735 388.801 248.157 393.809C249.486 395.793 250.993 397.707 252.431 399.711H253.552C250.854 395.843 247.829 392.173 245.776 387.898C242.801 381.709 241.809 373.22 248.752 369.242C254.613 365.86 261.834 367.824 266.505 372.267C271.563 377.088 273.934 383.971 275.342 390.646C275.967 393.621 276.443 396.596 276.919 399.711H277.861C276.413 390.358 275.005 380.866 268.806 373.477L268.836 373.448ZM207.84 177.428C207.298 177.481 206.762 177.54 206.233 177.606C203.971 180.244 201.362 182.563 198.477 184.499C194.507 187.204 190.108 189.216 185.465 190.45L184.255 191.819C185.377 191.591 186.486 191.303 187.577 190.956C194.847 188.615 202.802 183.904 207.84 177.428ZM209.229 204.93C208.036 202.556 207.73 199.834 208.366 197.254C209.476 192.216 213.503 187.336 218.78 186.493C225.613 185.382 231.008 191.392 236.979 193.564C240.014 194.675 243.823 195.002 246.719 193.644C246.61 193.406 246.491 193.178 246.381 192.959C243.793 194.269 240.56 193.951 237.862 193.049C231.792 191.065 226.952 185.481 220.198 185.561C211.272 185.68 204.428 197.036 208.296 205.04C209.655 207.817 212.263 209.701 214.495 211.685C216.827 213.619 218.695 216.053 219.96 218.806C221.1 221.389 221.703 224.177 221.732 227.001C221.76 229.824 221.215 232.624 220.128 235.23C219.096 237.756 217.36 239.932 215.127 241.5C212.895 243.068 210.259 243.963 207.533 244.077C204.931 244.142 202.35 243.611 199.985 242.527C197.62 241.442 195.534 239.832 193.885 237.819C192.303 235.842 191.402 233.407 191.317 230.876C191.227 227.484 192.507 224.191 193.3 220.958C194.56 216.148 194.748 209.84 189.244 207.638C184.83 205.863 179.603 208.074 176.152 210.881C171.54 214.62 169.675 220.522 167.097 225.659C164.339 231.144 160.313 236.351 153.757 236.946C153.34 236.946 152.934 237.005 152.527 237.005C152.349 237.323 152.17 237.65 151.982 237.997H152.239C157.536 238.047 161.959 235.29 165.024 231.055C168.634 226.096 170.181 219.946 173.672 214.888C176.648 210.594 183.025 206.626 188.401 208.322C196.226 210.792 192.298 220.472 191.009 225.887C189.839 230.777 190.384 235.389 193.846 239.217C200.223 246.249 212.263 247.152 218.492 239.515C224.879 231.64 223.51 218.984 216.26 212.131C213.92 209.86 210.845 207.975 209.229 204.93ZM237.723 233.484C242.989 235.468 248.801 233.038 253.146 230.033C254.988 228.744 256.69 227.265 258.224 225.619L257.986 224.767C257.281 225.52 256.547 226.244 255.794 226.919C251.221 230.975 244.259 235.051 237.991 232.671C231.534 230.221 230.165 222.684 232.209 216.802C234.51 210.127 240.827 206.081 246.907 203.225C248.038 202.696 249.178 202.19 250.329 201.707C250.24 201.449 250.13 201.201 250.021 200.943C240.718 204.98 230.979 210.207 230.413 221.355C230.156 226.492 232.675 231.57 237.723 233.484ZM270.621 287.855C266.658 291.361 261.972 293.952 256.895 295.442C249.803 297.426 242.613 295.7 238.11 289.66C236.173 286.951 234.711 283.933 233.786 280.734C232.566 276.767 231.683 272.492 232.794 268.416C234.599 261.572 241.165 257.288 247.552 255.284C253.027 253.559 258.779 252.983 264.412 252.061C264.343 251.744 264.283 251.426 264.224 251.069C261.903 251.486 259.592 251.853 257.341 252.19C250.646 253.182 243.773 254.57 238.318 258.835C235.837 260.661 233.894 263.121 232.691 265.956C231.489 268.792 231.072 271.899 231.485 274.952C232.268 281.081 234.718 287.845 239.112 292.269C243.505 296.692 249.654 297.952 255.645 296.682C261.252 295.363 266.447 292.682 270.77 288.877C270.7 288.569 270.621 288.212 270.621 287.855Z" fill="white"/>
<path d="M364.743 389.356C350.858 403.737 323.147 405.017 244.031 407.923C233.121 408.329 209.466 331.832 221.13 330.8C235.829 329.501 293.145 327.656 297.35 328.043C332.847 331.366 374.145 379.607 364.743 389.356Z" fill="#D3766A"/>
<path d="M246.59 332.645C246.59 332.645 215.417 325.702 197.912 327.14C174.476 329.055 155.027 340.361 147.162 345.588C130.747 356.498 98.5632 394.186 107.856 405.384C116.237 415.48 147.142 375.253 147.142 375.253C147.142 375.253 108.858 411.067 121.176 421.372C133.494 431.676 166.72 382.929 166.72 382.929C166.72 382.929 128.218 420.618 142.599 429.227C153.509 435.743 186.05 393.294 186.05 393.294C186.05 393.294 153.172 425.964 164.062 433.085C176.102 441.019 208.633 403.718 208.633 403.718C239.379 417.305 259.592 411.196 273.438 405.136C276.79 403.668 246.59 332.645 246.59 332.645Z" fill="#D3766A"/>
<path d="M159.589 362.012C154.937 366.059 150.206 370.125 145.931 374.568C141.657 379.012 137.541 383.604 133.693 388.454C124.27 400.286 120.224 409.163 120.531 408.637C127.861 396.319 142.916 380.172 147.191 375.729C151.466 371.286 155.502 366.644 159.767 362.201C159.876 362.062 159.698 361.923 159.589 362.012Z" fill="#263238"/>
<path d="M175.914 377.157C170.201 382.572 164.329 387.75 158.855 393.423C153.38 399.096 148.728 404.908 143.67 410.918C143.283 411.374 143.67 411.434 144.067 410.988C149.343 405.185 154.679 400.226 160.025 394.494C165.371 388.761 170.498 382.801 176.033 377.286C176.142 377.197 176.003 377.078 175.914 377.157Z" fill="#263238"/>
<path d="M192.269 387.631C183.114 395.466 175.408 404.987 168.088 414.498C167.721 414.975 168.217 414.994 168.614 414.498C176.489 405.414 182.589 398.223 192.536 387.908C192.695 387.789 192.457 387.462 192.269 387.631Z" fill="#263238"/>
<path d="M230.255 328.658L285.657 414.151C285.657 414.151 354.091 407.843 366.846 391.985C375.256 381.551 333.372 328.579 293.869 327.884L230.255 328.658Z" fill="#6DDAD3"/>
<path d="M239.994 329.818C240.184 333.703 239.656 337.59 238.437 341.283L237.772 340.292C238.674 337.197 239.095 333.983 239.022 330.76C239.002 330.034 238.943 329.309 238.844 328.588H239.835C239.915 328.985 239.968 329.395 239.994 329.818ZM254.871 366.664L255.466 367.576C259.582 367.745 263.492 369.426 266.445 372.297C271.504 377.117 273.874 384 275.282 390.675C275.987 393.978 276.492 397.4 277.018 400.841L278.248 402.745C276.651 392.421 275.659 381.66 268.796 373.477C265.325 369.322 260.366 366.455 254.881 366.664H254.871ZM330.764 352.263C328.78 347.512 325.874 342.821 324.902 337.763L323.98 337.217C324.465 340.092 325.357 342.884 326.628 345.509C328.262 348.703 329.696 351.995 330.923 355.367C331.9 358.468 332.444 361.688 332.539 364.938C332.936 378 325.785 390.804 312.753 394.474C301.03 397.777 287.73 392.708 284.447 380.281C282.996 374.99 283.587 369.347 286.103 364.472C289.426 358.313 295.575 356.418 301.704 353.988C306.752 352.005 312.683 348.315 313.05 342.246C313.338 337.286 309.351 333.994 304.918 332.893C299.244 331.475 294.087 333.359 289.098 335.997C283.038 339.201 276.82 343.198 269.659 341.69C266.262 340.913 263.12 339.279 260.533 336.944C257.947 334.609 256.001 331.65 254.881 328.35H253.681C254.899 332.034 257.084 335.322 260.008 337.872C262.933 340.421 266.488 342.137 270.304 342.841C283.197 344.824 292.669 329.947 305.632 334.123C308.161 334.946 310.591 336.562 311.582 339.082C312.872 342.365 311.424 345.786 309.133 348.216C304.114 353.512 296.239 353.81 290.487 357.946C282.324 363.817 280.846 375.749 284.992 384.447C289.882 394.712 302.14 398.203 312.594 395.436C324.426 392.302 331.964 381.789 333.273 369.897C333.925 363.902 333.066 357.84 330.774 352.263H330.764ZM356.114 365.047L355.39 364.154C352.841 364.085 350.342 363.361 348.914 361.04C348.027 359.487 347.678 357.684 347.922 355.913L347.059 355.05C346.872 356.259 346.872 357.49 347.059 358.7C347.892 363.48 351.949 365.017 356.124 365.047H356.114ZM345.105 391.161C340.424 389.773 334.929 389.525 330.407 391.617C325.587 393.839 323.544 398.56 324.208 403.737C324.449 405.27 324.78 406.787 325.2 408.28L326.033 408.121C325.041 404.055 324.218 399.998 326.43 396.299C329.286 391.538 335.654 390.646 340.702 391.231C347.029 391.965 352.276 395.515 357.711 398.54L358.792 397.995C354.289 395.505 349.965 392.599 345.105 391.161Z" fill="white"/>
<path d="M338.193 347.155C318.307 330.949 311.583 328.152 280.281 327.775C280.023 327.775 279.974 328.102 280.232 328.112C314.558 329.66 330.407 342.345 337.965 347.413C338.163 347.532 338.371 347.304 338.193 347.155Z" fill="#263238"/>
<path d="M306.019 404.521C300.435 394.791 294.325 385.369 288.166 375.967C282.007 366.565 275.917 357.123 269.55 347.889C265.95 342.652 262.379 337.406 258.64 332.298C258.541 332.169 258.293 332.298 258.382 332.447C263.956 342.166 270.026 351.618 276.086 361.04C282.146 370.462 288.325 379.885 294.583 389.217C298.124 394.484 301.754 399.691 305.493 404.799C305.721 405.047 306.187 404.799 306.019 404.521Z" fill="#263238"/>
<path opacity="0.1" d="M300.117 328.41L254.494 366.098L230.225 328.658L293.859 327.884C294.603 327.884 295.357 327.934 296.11 327.983L299.671 328.37L300.117 328.41Z" fill="black"/>
<path d="M169.705 235.379C161.582 327.081 174.277 400.127 212.779 405.394C238.348 408.885 231.941 331.346 231.881 329.689C231.683 324.016 228.737 276.697 210.607 225.223C190.662 168.601 173.335 194.407 169.705 235.379Z" fill="#D3766A"/>
<path d="M169.705 235.379C161.582 327.081 174.277 400.127 212.779 405.394C238.348 408.885 241.928 343.495 241.869 341.839C241.66 336.166 228.737 276.697 210.607 225.223C190.662 168.601 173.335 194.407 169.705 235.379Z" fill="#6DDAD3"/>
<path d="M212.829 231.749C218.432 249.016 223.53 266.462 228.479 283.918C233.19 301.443 238.219 318.948 241.174 336.87C234.46 306.124 221.19 262.584 212.829 231.739V231.749Z" fill="#263238"/>
<path d="M217.57 236.033C218.839 240.992 219.791 246.279 218.621 251.297C218.77 246.269 217.837 241.052 217.57 236.033Z" fill="#263238"/>
<path d="M173.762 214.918C173.315 215.563 172.909 216.217 172.512 216.901C172.717 215.982 172.935 215.08 173.166 214.194C174.046 212.975 175.079 211.875 176.241 210.921C179.692 208.114 184.919 205.902 189.333 207.678C194.837 209.88 194.649 216.187 193.389 220.998C192.546 224.231 191.267 227.524 191.406 230.916C191.491 233.446 192.392 235.882 193.974 237.858C195.623 239.872 197.709 241.482 200.074 242.566C202.439 243.651 205.021 244.181 207.622 244.117C210.675 244.035 213.611 242.924 215.953 240.963C216.062 241.27 216.161 241.578 216.26 241.895C209.704 246.953 199.628 245.505 193.984 239.286C190.523 235.458 190.017 230.846 191.148 225.957C192.437 220.541 196.365 210.861 188.539 208.392C183.114 206.656 176.727 210.623 173.762 214.918ZM183.065 251.347C183.451 248.699 183.065 245.832 180.893 244.057C179.018 242.715 176.698 242.15 174.416 242.48C172.503 242.678 170.646 243.247 168.951 244.156C168.951 244.503 168.892 244.85 168.872 245.198C169.511 244.839 170.174 244.524 170.856 244.255C173.464 243.204 176.806 242.778 179.395 244.136C182.995 246.031 182.539 250.454 181.597 253.797C179.286 261.909 173.077 267.84 167.483 274.049C167.483 274.495 167.483 274.942 167.483 275.378C170.33 272.115 173.355 269.011 176.053 265.619C179.375 261.463 182.281 256.712 183.065 251.347ZM212.61 300.709C218.77 290.007 220.247 273.672 207.79 266.749C205.349 265.342 202.555 264.668 199.741 264.807C196.926 264.946 194.212 265.892 191.921 267.533C186.962 271.044 183.918 276.717 181.587 282.192C178.988 288.311 176.628 295.085 171.57 299.618C170.402 300.687 169.06 301.55 167.602 302.167C167.602 302.524 167.602 302.871 167.652 303.218C173.057 301.334 176.658 295.423 178.968 290.583C181.805 284.632 183.709 278.274 187.746 272.998C191.783 267.721 197.981 264.191 204.696 266.482C211.886 268.931 216.002 276.033 216.27 283.342C216.766 296.702 207.344 307.761 197.743 315.824C188.946 323.193 179.068 329.263 170.766 337.227C170.836 337.693 170.905 338.159 170.984 338.616C176.279 333.605 181.913 328.966 187.845 324.73C197.148 317.956 206.779 310.835 212.61 300.709ZM234.857 349.803C237.832 344.1 240.083 337.792 240.044 331.316C240.044 330.81 240.044 330.324 239.994 329.818C239.834 327.108 239.161 324.452 238.011 321.993C236.617 318.945 234.401 316.345 231.613 314.485C229.357 312.935 226.693 312.086 223.956 312.046C221.219 312.005 218.532 312.774 216.231 314.257C211.46 317.312 208.375 322.717 207.195 328.142C205.479 336.027 206.908 344.12 207.066 352.074C207.342 367.316 203.239 382.317 195.244 395.297C195.026 395.654 194.798 396.001 194.57 396.358C194.837 396.616 195.115 396.864 195.393 397.112C197.79 393.433 199.851 389.546 201.552 385.498C204.454 378.765 206.426 371.668 207.413 364.402C208.455 356.746 207.969 349.238 207.562 341.591C207.175 334.232 207.413 326.525 211.708 320.237C215.487 314.703 222.092 311.311 228.648 314.068C235.204 316.826 238.883 323.808 239.022 330.751C239.419 345.102 229.104 357.152 222.033 368.707C218.66 374.201 215.635 380.013 214.217 386.341C212.888 392.342 213.096 398.582 214.822 404.481C214.921 404.838 215.04 405.195 215.149 405.552C215.487 405.552 215.824 405.552 216.141 405.483C213.929 398.716 213.76 391.448 215.655 384.586C219.305 371.653 228.797 361.496 234.857 349.803Z" fill="white"/>
<path d="M167.959 247.955C167.85 270.34 168.426 292.755 170.28 315.05C172.631 342.95 179.207 401.764 214.911 404.541C220.505 404.878 225.663 403.787 230.185 400.286C236.959 395.436 242.622 389.198 248.038 382.89C258.819 370.155 268.598 356.022 277.663 342.285L275.491 340.074L277.742 342.206C274.886 347.046 271.861 351.777 268.816 356.478C259.741 370.016 238.804 401.109 223.421 405.562C204.577 409.738 190.414 396.795 182.757 380.827C165.897 345.191 166.888 287.419 167.93 247.925L167.959 247.955Z" fill="#263238"/>
<path d="M166.115 253.499C166.591 257.744 167.285 261.84 167.741 266.085C166.205 262.079 165.648 257.764 166.115 253.499Z" fill="#263238"/>
<path d="M233.409 231.57C233.409 231.57 200.411 201.38 179.732 202.808L162.683 218.974C162.683 218.974 156.98 221.057 155.066 217.457C150.355 208.531 148.748 186.711 167.077 171.913C183.868 158.336 219.305 159.813 243.039 165.229C265.851 170.426 278.744 183.309 272.287 198.275C265.831 213.242 233.409 231.57 233.409 231.57Z" fill="#6DDAD3"/>
<path opacity="0.1" d="M235.442 224.568C235.442 224.568 260.733 205.198 263.044 194.13C265.355 183.061 243.039 173.302 228.718 169.682C206.551 164.058 191.644 165.972 179.732 178.102C167.821 190.232 235.442 224.568 235.442 224.568Z" fill="black"/>
<path d="M239.092 220.879C227.269 222.366 209.338 202.62 203.079 187.495C202.653 186.503 205.261 176.297 207.85 163.8C209.387 156.213 210.924 147.733 211.767 139.888C211.936 138.271 259.681 157.116 259.681 157.116C259.681 157.116 253.086 173.044 251.697 186.731C251.603 187.813 251.603 188.902 251.697 189.984C251.697 190.133 251.697 190.321 251.697 190.529C252.045 196.748 250.517 219.431 239.092 220.879Z" fill="#D3766A"/>
<path d="M246.629 190.242C248.307 190.485 250.003 190.578 251.697 190.519C251.697 190.311 251.697 190.133 251.697 189.974C251.594 188.892 251.594 187.803 251.697 186.721C253.076 173.054 259.632 157.125 259.632 157.125C259.632 157.125 220.872 141.822 213.017 139.967C213.672 149.191 217.679 186.493 246.629 190.242Z" fill="#263238"/>
<path d="M196.117 100.404C194.877 118.703 215.377 165.972 230.096 174.155C251.43 186.056 280.678 180.83 289.267 156.501C297.628 132.906 269.818 71.7809 253.909 64.9374C230.493 54.8508 197.952 73.3677 196.117 100.404Z" fill="#D3766A"/>
<path d="M251.261 120.141C251.182 120.032 251.073 120.399 251.132 120.528C252.6 123.682 253.751 127.53 251.321 129.821C251.241 129.901 251.321 130.049 251.42 129.99C254.752 127.986 253.156 122.888 251.261 120.141Z" fill="#263238"/>
<path d="M246.986 118.029C241.69 119.844 245.687 130.307 250.596 128.631C255.506 126.955 251.43 116.521 246.986 118.029Z" fill="#263238"/>
<path d="M270.978 112.108C270.978 111.969 271.286 112.108 271.335 112.296C272.466 115.579 274.31 119.139 277.673 119.1C277.772 119.1 277.821 119.258 277.673 119.288C273.944 120.151 271.524 115.39 270.978 112.108Z" fill="#263238"/>
<path d="M272.605 107.595C277.663 105.205 282.076 115.529 277.385 117.711C272.694 119.893 268.33 109.578 272.605 107.595Z" fill="#263238"/>
<path d="M242.484 118.445C243.929 117.933 245.346 117.344 246.729 116.68C248.355 115.986 249.704 115.599 250.696 114.052C250.932 113.585 251.006 113.053 250.908 112.54C250.809 112.027 250.543 111.561 250.15 111.215C248.395 109.817 246.183 110.174 244.2 110.937C242.174 111.62 240.476 113.035 239.439 114.905C238.358 116.868 240.5 119.06 242.484 118.445Z" fill="#263238"/>
<path d="M272.843 98.9364C271.328 99.1871 269.802 99.3592 268.27 99.4521C266.515 99.6307 265.126 99.9481 263.51 99.0852C263.077 98.7912 262.753 98.3628 262.588 97.8662C262.423 97.3696 262.426 96.8324 262.597 96.3379C263.47 94.265 265.573 93.5113 267.665 93.2137C269.78 92.8394 271.959 93.2674 273.775 94.4138C275.679 95.5643 274.866 98.5199 272.843 98.9364Z" fill="#263238"/>
<path d="M259.612 150.242C260.674 150.709 261.854 151.452 263.064 151.105C264.261 150.619 265.343 149.886 266.238 148.953C266.254 148.93 266.279 148.914 266.307 148.908C266.334 148.902 266.363 148.905 266.388 148.919C266.413 148.932 266.433 148.953 266.444 148.98C266.454 149.006 266.455 149.035 266.446 149.062C266.225 149.877 265.789 150.617 265.183 151.205C264.578 151.794 263.825 152.208 263.004 152.405C261.437 152.702 260.227 151.71 259.354 150.51C259.235 150.322 259.454 150.153 259.612 150.242Z" fill="#263238"/>
<path d="M261.616 145.115C265.087 141.891 270.542 140.364 274.083 139.481C274.43 139.283 274.489 138.41 274.41 138.033L271.544 131.269C272.625 131.368 278.02 131.646 277.445 130.387C272.664 119.973 267.348 108.388 260.396 99.0257C260.354 98.9521 260.284 98.8982 260.202 98.8758C260.12 98.8535 260.033 98.8646 259.959 98.9067C259.886 98.9488 259.832 99.0184 259.809 99.1003C259.787 99.1821 259.798 99.2694 259.84 99.3431C264.036 109.529 269.996 118.921 274.38 129.097C272.694 129.097 269.907 129.008 268.628 129.544C268.31 129.772 272.03 136.546 272.337 137.696C272.337 137.696 265.037 138.281 261.02 143.756C259.969 145.145 259.949 146.652 261.616 145.115Z" fill="#263238"/>
<path d="M206.66 145.283C214.654 144.549 216.945 131.458 217.083 126.241C217.222 121.024 209.903 101.614 210.855 93.5113C211.807 85.4083 219.315 80.0922 225.93 79.626C232.546 79.1599 243.208 84.0297 247.443 81.9667C251.678 79.9038 249.129 69.9857 252.183 68.8253C258.908 66.2764 268.052 80.1319 272.079 87.0447C272.079 87.0447 263.401 53.3234 227.716 63.2415C195.175 72.1677 193.28 97.786 194.143 108.299C195.78 128.343 206.66 145.283 206.66 145.283Z" fill="#263238"/>
<path d="M254.435 141.544C251.781 142.309 248.965 142.313 246.308 141.557C243.652 140.8 241.26 139.314 239.407 137.266C237.554 135.217 236.312 132.69 235.824 129.971C235.336 127.253 235.62 124.451 236.645 121.886C237.67 119.321 239.395 117.095 241.622 115.462C243.85 113.828 246.491 112.853 249.246 112.646C252 112.44 254.757 113.01 257.204 114.293C259.65 115.576 261.687 117.52 263.083 119.903C265.056 123.282 265.609 127.305 264.619 131.09C263.63 134.876 261.18 138.115 257.807 140.096C256.747 140.715 255.614 141.202 254.435 141.544V141.544ZM246.818 115.073C245.796 115.366 244.816 115.789 243.902 116.333C241.109 117.979 239.048 120.629 238.14 123.741C237.232 126.854 237.544 130.196 239.013 133.086C240.482 135.976 242.998 138.198 246.047 139.299C249.097 140.4 252.452 140.297 255.428 139.011C258.405 137.725 260.78 135.353 262.069 132.378C263.358 129.403 263.464 126.049 262.367 122.998C261.269 119.947 259.05 117.429 256.162 115.956C253.273 114.484 249.931 114.168 246.818 115.073V115.073Z" fill="#EBEBEB"/>
<path d="M285.587 128.264C280.162 129.831 273.686 125.695 270.71 118.594C269.224 115.226 268.832 111.476 269.59 107.873C269.872 106.326 270.522 104.869 271.485 103.626C272.448 102.383 273.696 101.391 275.124 100.732C277.901 99.5613 281.075 99.9481 284.1 101.783C287.2 103.766 289.603 106.668 290.973 110.084C294.117 117.592 292.133 125.606 286.55 127.937C286.237 128.069 285.916 128.178 285.587 128.264ZM276.572 102.309C276.33 102.378 276.091 102.461 275.858 102.557C274.718 103.096 273.725 103.902 272.964 104.907C272.203 105.912 271.695 107.086 271.484 108.329C270.82 111.522 271.166 114.843 272.476 117.83C275.213 124.327 281.144 128.066 285.736 126.132C290.328 124.198 291.826 117.354 289.098 110.848C287.894 107.816 285.772 105.236 283.029 103.469C282.092 102.837 281.034 102.408 279.923 102.208C278.811 102.008 277.67 102.042 276.572 102.309V102.309Z" fill="#EBEBEB"/>
<path d="M263.282 121.669L261.526 120.766C262.865 118.167 266.664 113.823 271.444 115.995L270.641 117.791C266.356 115.847 263.411 121.48 263.282 121.669Z" fill="#EBEBEB"/>
<path d="M204.17 150.619L202.187 150.461C202.256 149.548 203.01 141.435 206.798 139.075C210.339 136.873 235.68 128.919 236.751 128.581L237.346 130.466C230.076 132.737 210.567 139.035 207.84 140.741C205.321 142.308 204.309 148.398 204.17 150.619Z" fill="#EBEBEB"/>
<path d="M219.275 139.085C219.275 139.085 204.17 126.013 197.922 131.805C191.674 137.597 205.926 158.504 215.189 159.516C224.453 160.527 225.544 151.958 225.544 151.958L219.275 139.085Z" fill="#D3766A"/>
<path d="M202.187 137.696C202.155 137.696 202.125 137.709 202.102 137.731C202.08 137.753 202.068 137.784 202.068 137.815C202.068 137.847 202.08 137.877 202.102 137.899C202.125 137.922 202.155 137.934 202.187 137.934C208.733 138.837 213.255 143.548 216.885 148.695C214.564 146.95 211.857 146.355 209.447 149.201C209.328 149.35 209.536 149.558 209.695 149.479C211.986 148.338 213.85 148.318 215.983 149.846C217.445 151.02 218.776 152.35 219.95 153.813C220.366 154.269 221.249 153.743 220.892 153.188C220.871 153.142 220.845 153.098 220.813 153.059C219.047 145.492 210.458 136.357 202.187 137.696Z" fill="#263238"/>
<path d="M235.442 224.568C235.442 224.568 208.375 182.059 176.241 178.836L179.732 202.808C179.732 202.808 198.814 202.213 233.408 231.57L235.442 224.568Z" fill="#6DDAD3"/>
<path d="M171.124 203.512C176.955 202.59 182.817 203.691 188.371 205.238C193.935 206.895 199.293 209.181 204.339 212.052C209.426 214.86 214.319 218.005 218.988 221.464L225.861 226.849L232.496 232.552L233.24 233.197L234.034 232.76C239.897 229.489 245.531 225.821 250.894 221.781C253.608 219.798 256.198 217.652 258.65 215.354C261.126 213.089 263.375 210.588 265.365 207.886C260.783 212.766 255.357 216.624 249.873 220.333C247.115 222.168 244.279 223.894 241.413 225.55C238.546 227.206 235.67 228.883 232.754 230.38L234.282 230.579L227.636 224.677C225.345 222.803 223.005 220.978 220.694 219.163C218.383 217.348 215.824 215.751 213.315 214.204C210.806 212.657 208.227 211.109 205.529 209.84C200.231 207.083 194.601 205.016 188.778 203.691C187.34 203.334 185.852 203.135 184.384 202.887C182.916 202.639 181.409 202.58 179.931 202.56C176.962 202.376 173.984 202.698 171.124 203.512V203.512Z" fill="#263238"/>
<path d="M162.683 218.974C165.856 216.655 168.868 214.124 171.699 211.397C174.57 208.715 177.255 205.838 179.732 202.788C176.554 205.101 173.538 207.629 170.707 210.356C167.843 213.047 165.163 215.926 162.683 218.974V218.974Z" fill="#263238"/>
<path d="M223.193 216.098C222.177 226.217 222.038 236.404 222.776 246.547C223.242 253.628 228.162 278.731 235.937 277.134C243.713 275.537 229.501 260.273 226.089 247.122C222.637 233.752 225.414 223.854 225.196 215.811L223.193 216.098Z" fill="#6DDAD3"/>
<g opacity="0.1">
<path opacity="0.1" d="M223.193 216.098C222.177 226.217 222.038 236.404 222.776 246.547C223.242 253.628 228.162 278.731 235.937 277.134C243.713 275.537 229.501 260.273 226.089 247.122C222.637 233.752 225.414 223.854 225.196 215.811L223.193 216.098Z" fill="black"/>
</g>
<path d="M249.714 217.358C253.191 225.897 255.926 234.72 257.886 243.73C259.305 250.008 261.477 273.107 254.306 273.712C247.135 274.317 255.575 257.417 255.159 245.079C254.752 232.562 249.793 224.628 247.899 217.616L249.714 217.358Z" fill="#6DDAD3"/>
<g opacity="0.1">
<path opacity="0.1" d="M249.714 217.358C253.191 225.897 255.926 234.72 257.886 243.73C259.305 250.008 261.477 273.107 254.306 273.712C247.135 274.317 255.575 257.417 255.159 245.079C254.752 232.562 249.793 224.628 247.899 217.616L249.714 217.358Z" fill="black"/>
</g>
<path d="M219.94 399.83C241.045 396.587 275.63 349.04 297.548 294.699C301.724 284.354 221.408 242.53 218.204 254.035C208.008 290.94 188.043 339.211 188.688 368.985C189.214 392.133 205.35 402.081 219.94 399.83Z" fill="#D3766A"/>
<path d="M257.509 214.868C252.392 208.6 251.608 191.065 247.016 180.73C242.424 170.396 228.965 165.546 226.595 169.345C224.224 173.143 227.735 176.971 228.836 193.951C229.541 204.861 221.18 226.681 224.75 246.517C226.545 256.465 262.687 221.136 257.509 214.868Z" fill="#F7A9A0"/>
<path d="M257.509 214.868C252.392 208.6 251.608 191.065 247.016 180.73C242.424 170.396 228.965 165.546 226.595 169.345C224.224 173.143 227.735 176.971 228.836 193.951C229.541 204.861 221.18 226.681 224.75 246.517C226.545 256.465 262.687 221.136 257.509 214.868Z" fill="#D3766A"/>
<path opacity="0.06" d="M257.509 214.868C252.392 208.6 251.608 191.065 247.016 180.73C242.424 170.396 228.965 165.546 226.595 169.345C224.224 173.143 227.735 176.971 228.836 193.951C229.541 204.861 221.18 226.681 224.75 246.517C226.545 256.465 262.687 221.136 257.509 214.868Z" fill="black"/>
<path d="M297.4 161.539C304.571 168.224 286.579 184.499 286.579 184.499C286.579 184.499 293.115 182.734 298.798 185.908C305.304 189.528 302.468 201.33 302.468 201.33C302.468 201.33 309.46 200.914 315.123 204.861C321.005 208.967 319.834 221.275 319.834 221.275C319.834 221.275 326.559 224.469 328.999 231.392C333.184 243.244 320.072 257.456 313.725 267.86C306.911 278.998 298.362 292.824 293.462 299.687L216.647 260.61C216.647 260.61 229.808 201.866 240.232 191.809C249.049 183.339 286.49 151.314 297.4 161.539Z" fill="#D3766A"/>
<path d="M286.272 184.45C274.767 191.214 264.908 200.715 255.526 209.989C255.482 210.032 255.458 210.091 255.458 210.152C255.458 210.214 255.482 210.272 255.526 210.316C255.569 210.359 255.628 210.384 255.689 210.384C255.751 210.384 255.81 210.359 255.853 210.316C265.107 200.983 277.078 193.902 286.678 184.955C286.745 184.902 286.788 184.823 286.798 184.738C286.807 184.652 286.782 184.566 286.728 184.499C286.674 184.432 286.596 184.389 286.51 184.38C286.424 184.371 286.339 184.396 286.272 184.45Z" fill="#263238"/>
<path d="M301.535 200.904C298.977 202.51 296.963 204.96 294.94 207.162C292.758 209.532 290.616 211.952 288.523 214.392C284.318 219.285 280.235 224.281 276.274 229.378C276.096 229.606 276.403 229.934 276.601 229.706C280.797 224.836 285.071 220.026 289.495 215.344C291.697 212.997 293.918 210.683 296.16 208.402C298.233 206.25 300.613 204.157 302.18 201.578C302.224 201.536 302.26 201.485 302.285 201.429C302.309 201.373 302.323 201.313 302.324 201.251C302.325 201.19 302.315 201.129 302.293 201.072C302.27 201.015 302.237 200.963 302.195 200.919C302.153 200.874 302.102 200.839 302.046 200.814C301.99 200.789 301.929 200.776 301.868 200.775C301.807 200.773 301.746 200.784 301.689 200.806C301.632 200.828 301.58 200.861 301.535 200.904V200.904Z" fill="#263238"/>
<path d="M319.686 221.474C317.404 222.783 315.718 225.441 314.042 227.424C312.178 229.699 310.296 231.96 308.399 234.208C304.61 238.701 300.821 243.194 296.874 247.558C296.676 247.776 297.003 248.104 297.201 247.885C301.228 243.472 305.314 239.118 309.301 234.665C311.285 232.483 313.232 230.287 315.143 228.079C316.789 226.205 319.061 224.052 319.914 221.662C319.924 221.632 319.924 221.599 319.916 221.568C319.907 221.538 319.889 221.51 319.864 221.49C319.839 221.469 319.809 221.457 319.777 221.454C319.745 221.451 319.713 221.458 319.686 221.474V221.474Z" fill="#263238"/>
<path d="M288.86 159.546C275.818 164.941 260.187 176.406 251.023 183.527C247.602 186.179 244.322 189.006 241.194 191.997C238.159 195.042 236.176 198.94 234.252 202.758C232.932 205.347 231.812 208.035 230.701 210.693C232.685 203.75 235.065 196.371 240.004 190.857C243.09 187.707 246.383 184.768 249.863 182.059C259.086 174.968 268.548 167.777 279.279 163.146L288.86 159.546Z" fill="#263238"/>
<path d="M201.681 275.468L277.703 342.246C277.703 342.246 237.951 406.495 219.415 405.235C200.878 403.975 180.734 391.975 182.252 347.413C182.619 336.255 201.681 275.468 201.681 275.468Z" fill="#6DDAD3"/>
<path d="M187.944 324.8L186.952 325.514C187.091 324.978 187.24 324.443 187.379 323.897C190.9 321.289 194.421 318.67 197.773 315.854C206.233 308.772 214.515 299.37 216.052 288.083L216.806 288.748C216.114 292.936 214.68 296.966 212.571 300.649C206.779 310.835 197.148 317.956 187.944 324.8ZM231.633 314.495C229.377 312.945 226.713 312.096 223.976 312.056C221.239 312.015 218.551 312.784 216.25 314.267C211.48 317.322 208.395 322.727 207.215 328.152C205.499 336.037 206.927 344.13 207.086 352.084C207.355 367.175 203.327 382.032 195.472 394.92C195.74 395.198 196.017 395.466 196.295 395.724C198.302 392.447 200.063 389.026 201.562 385.488C204.464 378.755 206.436 371.658 207.423 364.393C208.465 356.736 207.979 349.228 207.572 341.581C207.185 334.222 207.423 326.516 211.718 320.228C215.496 314.693 222.102 311.301 228.658 314.059C235.214 316.816 238.883 323.808 239.022 330.751C239.419 345.102 229.104 357.152 222.032 368.707C218.66 374.201 215.635 380.013 214.217 386.341C212.888 392.342 213.096 398.582 214.822 404.481C214.844 404.565 214.87 404.648 214.901 404.729L215.963 404.898C213.926 398.294 213.822 391.246 215.665 384.586C219.305 371.692 228.797 361.566 234.856 349.873C238.02 343.733 240.43 336.89 239.994 329.888C239.899 326.846 239.093 323.869 237.642 321.194C236.19 318.52 234.132 316.222 231.633 314.485V314.495ZM253.909 366.733C248.553 367.259 243.852 370.7 242.702 376.106C241.888 379.974 242.84 383.941 244.497 387.581C244.725 387.313 244.973 387.045 245.211 386.778C242.662 380.728 242.235 373.011 248.702 369.282C250.398 368.338 252.277 367.767 254.212 367.61C256.147 367.453 258.093 367.712 259.919 368.37C260.118 368.102 260.306 367.834 260.514 367.566C258.403 366.796 256.146 366.508 253.909 366.723V366.733ZM276.879 341.532C274.503 342.121 272.025 342.165 269.629 341.66C260.266 339.677 253.205 330.473 253.988 321.408L252.997 320.505C251.459 330.87 260.108 341.234 270.304 342.821C272.762 343.179 275.27 342.999 277.653 342.295L277.702 342.206L276.879 341.532Z" fill="white"/>
<path d="M200.838 303.089C204.557 306.193 208.028 309.625 211.559 312.938C215.09 316.25 218.601 319.613 222.062 323.015C228.979 329.818 235.839 336.672 242.642 343.575C244.497 345.469 246.352 347.363 248.177 349.297C250.002 351.231 251.817 353.671 253.79 355.704C253.814 355.739 253.824 355.78 253.82 355.821C253.816 355.863 253.798 355.901 253.769 355.931C253.739 355.96 253.701 355.978 253.659 355.982C253.618 355.986 253.577 355.976 253.542 355.952C251.817 354.316 249.853 352.917 248.087 351.311C246.322 349.704 244.467 347.939 242.682 346.223C239.191 342.857 235.713 339.478 232.248 336.086C225.306 329.303 218.432 322.469 211.738 315.467C207.959 311.5 204.022 307.612 200.481 303.436C200.435 303.389 200.409 303.325 200.41 303.259C200.411 303.193 200.438 303.13 200.486 303.084C200.533 303.038 200.597 303.013 200.663 303.014C200.729 303.015 200.792 303.042 200.838 303.089V303.089Z" fill="#263238"/>
<path d="M210.29 283.035L201.502 275.676L201.929 275.557C197.753 291.307 193.141 306.937 188.817 322.638C186.82 329.427 185.165 336.312 183.858 343.267C182.726 352.322 182.699 361.481 183.779 370.542C181.594 361.542 180.89 352.246 181.696 343.019C183.848 327.795 188.728 313.106 193.27 298.477C195.859 290.593 198.596 282.767 201.562 275.011L201.849 275.269L210.28 283.035H210.29Z" fill="#263238"/>
<path d="M428.249 305.261C415.236 322.876 401.678 343.317 398.375 365.404C398.375 365.731 398.871 365.841 398.951 365.513C400.447 359.49 402.369 353.58 404.703 347.829C413.253 345.479 421.643 343.545 426.136 335.055C430.718 326.327 430.103 314.961 429.26 305.45C429.201 304.964 428.506 304.964 428.249 305.261Z" fill="#6DDAD3"/>
<path d="M404.832 347.661C410.674 334.549 418.172 321.388 427.703 310.607C427.716 310.593 427.735 310.584 427.754 310.583C427.774 310.582 427.793 310.589 427.807 310.602C427.822 310.615 427.83 310.634 427.831 310.653C427.832 310.673 427.825 310.692 427.812 310.706C421.574 318.393 416.823 326.754 412.191 335.263C416.506 330.889 421.217 326.972 425.303 322.37C425.382 322.271 425.511 322.37 425.432 322.499C421.375 327.359 416.952 332.635 411.685 336.235C410.27 338.84 408.839 341.455 407.391 344.08C407.748 343.882 408.115 343.704 408.472 343.525C408.541 343.525 408.591 343.594 408.531 343.624C408.125 343.832 407.728 344.041 407.312 344.219C406.627 345.459 405.953 346.699 405.249 347.938C405.09 348.177 404.703 347.938 404.832 347.661Z" fill="#263238"/>
<path d="M409.176 343.089C412.671 341.126 416.01 338.898 419.163 336.424C419.243 336.354 419.372 336.424 419.283 336.543C416.245 339.176 412.917 341.455 409.365 343.336C409.156 343.416 409.017 343.178 409.176 343.089Z" fill="#263238"/>
<path d="M396.868 362.121C396.868 362.389 397.354 362.379 397.344 362.121C397.413 354.851 397.344 347.542 397.463 340.232C399.328 336.473 403.325 334.39 406.111 331.385C408.11 329.181 409.851 326.755 411.299 324.155C414.647 317.945 416.696 311.118 417.319 304.091C418.083 296.315 415.127 270.637 411.854 271.53C410.148 271.986 404.644 284.711 403.186 288.906C400.818 295.843 399.086 302.98 398.008 310.23C395.35 327.319 395.588 344.894 396.868 362.121Z" fill="#6DDAD3"/>
<path d="M396.818 330.751C397.215 321.547 399.288 312.253 401.222 303.327C403.314 293.707 405.764 284.652 410.713 276.072C410.803 275.914 411.041 276.072 410.951 276.221C407.653 282.893 405.098 289.908 403.334 297.138C403.672 296.613 404.068 296.147 404.415 295.631C404.554 295.442 404.872 295.631 404.733 295.819C404.293 296.597 403.774 297.328 403.186 298.001C403.166 298.008 403.145 298.008 403.126 298.001C401.42 304.874 400.2 311.886 399.159 318.918L399.397 318.651C399.446 318.591 399.536 318.651 399.506 318.73C399.377 318.968 399.228 319.196 399.089 319.434C398.554 322.995 398.098 326.545 397.582 330.066C403.919 324.651 409.325 318.264 412.38 310.389C412.38 310.389 412.459 310.389 412.439 310.389C409.464 318.551 404.733 325.801 397.473 330.76C397.344 331.752 397.215 332.655 397.076 333.597C397.076 333.795 396.739 333.746 396.739 333.597C396.739 332.754 396.739 331.911 396.818 331.078C396.789 331.061 396.765 331.038 396.749 331.009C396.732 330.98 396.723 330.947 396.723 330.914C396.723 330.881 396.732 330.848 396.749 330.82C396.765 330.791 396.789 330.767 396.818 330.751V330.751Z" fill="#263238"/>
<path d="M399.804 317.401C404.653 310.171 409.176 303.149 412.697 295.165C412.697 295.075 412.895 295.165 412.856 295.224C409.88 303.159 405.685 311.212 400.032 317.589C399.932 317.718 399.704 317.55 399.804 317.401Z" fill="#263238"/>
<path d="M406.24 293.379C408.224 289.829 410.366 286.367 412.251 282.747C412.31 282.648 412.449 282.747 412.4 282.837C410.856 286.616 408.897 290.212 406.558 293.558C406.419 293.737 406.131 293.578 406.24 293.379Z" fill="#263238"/>
<path d="M405.506 294.917V294.986C405.506 294.986 405.417 294.917 405.506 294.917Z" fill="#263238"/>
<path d="M391.948 341.085C391.852 345.906 391.284 350.706 390.253 355.417C390.322 355.932 390.401 356.408 390.471 356.984C391.962 351.779 392.824 346.415 393.039 341.006C393.084 340.931 393.107 340.845 393.107 340.758C393.107 340.671 393.084 340.585 393.039 340.51V340.51C393.255 333.254 392.723 325.996 391.453 318.849C389.201 305.489 384.282 292.655 374.959 282.638C374.882 282.581 374.794 282.54 374.7 282.519C374.607 282.499 374.51 282.498 374.416 282.518C374.322 282.538 374.233 282.577 374.156 282.634C374.079 282.69 374.014 282.763 373.967 282.846C370.208 292.417 371.517 303.833 374.721 313.374C376.465 318.54 378.958 323.422 382.12 327.864C385.274 332.367 389.35 336.166 391.948 341.085Z" fill="#6DDAD3"/>
<path d="M376.06 287.111C384.897 301.453 391.046 318.452 391.79 335.392C391.79 335.69 391.304 335.769 391.264 335.462C391.056 333.944 390.818 332.437 390.58 330.939C386.92 327.438 383.171 323.748 380.552 319.365C380.552 319.295 380.622 319.196 380.681 319.275C383.719 322.993 386.971 326.53 390.421 329.868C389.76 326.125 389.003 322.439 388.15 318.809C387.912 318.532 387.683 318.254 387.445 317.986C387.207 317.718 387.555 317.54 387.713 317.728L387.922 317.956C386.68 312.977 385.137 308.079 383.3 303.288C381.058 300.61 378.539 298.329 376.903 295.056C376.896 295.04 376.895 295.023 376.9 295.007C376.906 294.99 376.917 294.977 376.931 294.968C376.946 294.96 376.963 294.957 376.98 294.96C376.996 294.963 377.011 294.973 377.022 294.986C378.341 296.841 379.61 298.696 381.108 300.411C381.703 301.096 382.357 301.73 382.972 302.395C380.94 297.196 378.527 292.153 375.752 287.31C375.745 287.271 375.75 287.231 375.766 287.196C375.781 287.16 375.807 287.129 375.84 287.108C375.873 287.087 375.911 287.076 375.95 287.076C375.989 287.077 376.027 287.089 376.06 287.111Z" fill="#263238"/>
<path d="M377.845 304.805C380.701 308.643 383.955 312.313 386.613 316.29C386.692 316.399 386.523 316.518 386.424 316.429C383.012 313.225 380.126 308.861 377.657 304.914C377.577 304.795 377.736 304.686 377.845 304.805Z" fill="#263238"/>
<path d="M387.009 317.173L387.128 317.302C387.217 317.381 387.128 317.51 386.999 317.431L386.88 317.312C386.791 317.222 386.93 317.093 387.009 317.173Z" fill="#263238"/>
<path d="M362.214 314.683C362.928 322.062 366.806 330.87 371.537 336.553C373.619 339.028 376.197 341.038 379.105 342.454C382.378 344.08 385.809 345.945 389.191 347.274C390.804 351.372 392.001 355.622 392.762 359.959L393.089 358.838C390.917 340.163 378.827 324.195 363.335 313.949C363.215 313.877 363.077 313.841 362.937 313.843C362.798 313.846 362.661 313.888 362.544 313.965C362.427 314.041 362.334 314.149 362.276 314.277C362.218 314.404 362.196 314.545 362.214 314.683Z" fill="#6DDAD3"/>
<path d="M367.56 320.198C367.451 320.098 367.56 319.91 367.719 319.999C376.215 326.314 382.988 334.663 387.416 344.279C387.525 344.527 387.178 344.755 387.029 344.497C386.315 343.237 385.581 342.017 384.837 340.807C381.307 340.143 377.964 337.653 375.346 335.293C375.276 335.233 375.346 335.134 375.445 335.194C376.797 336.424 378.3 337.477 379.918 338.328C381.356 339.062 382.893 339.518 384.401 340.103C383.079 338.034 381.713 336.05 380.305 334.152C376.495 332.706 372.922 330.701 369.702 328.202C369.689 328.196 369.677 328.188 369.667 328.178C369.657 328.168 369.649 328.155 369.644 328.142C369.639 328.128 369.638 328.114 369.639 328.099C369.641 328.085 369.645 328.071 369.652 328.059C369.66 328.046 369.67 328.035 369.681 328.027C369.693 328.019 369.707 328.014 369.721 328.011C369.735 328.009 369.75 328.009 369.764 328.013C369.778 328.017 369.791 328.024 369.802 328.033C372.991 329.965 376.282 331.723 379.66 333.299C377.507 330.461 375.189 327.752 372.718 325.186C371.517 324.552 370.298 323.917 369.137 323.203C369.118 323.19 369.104 323.17 369.097 323.148C369.091 323.126 369.092 323.102 369.102 323.08C369.111 323.059 369.128 323.042 369.149 323.031C369.17 323.021 369.194 323.019 369.216 323.024C370.182 323.365 371.104 323.817 371.964 324.373C370.536 322.955 369.097 321.556 367.56 320.198Z" fill="#263238"/>
<path d="M367.887 326.644C368.096 326.772 368.295 326.914 368.482 327.071C368.542 327.071 368.482 327.2 368.403 327.17C368.2 327.054 368.004 326.925 367.818 326.783C367.679 326.783 367.818 326.575 367.887 326.644Z" fill="#263238"/>
<path d="M417.22 400.415H374.85L378.272 361.834L379.025 353.324H413.054L413.798 361.834L417.22 400.415Z" fill="#455A64"/>
<path d="M413.798 361.834H378.271L379.025 353.324H413.054L413.798 361.834Z" fill="#263238"/>
<path d="M415.077 347.373H377.002V355.794H415.077V347.373Z" fill="#455A64"/>
<path d="M334.027 98.3512C334.202 100.399 333.765 102.452 332.773 104.252C331.781 106.052 330.278 107.517 328.454 108.463C326.629 109.408 324.565 109.792 322.523 109.565C320.48 109.338 318.551 108.511 316.979 107.188C315.406 105.865 314.261 104.105 313.688 102.132C313.115 100.158 313.141 98.059 313.76 96.0997C314.38 94.1403 315.567 92.4087 317.171 91.1236C318.774 89.8385 320.723 89.0576 322.77 88.8795C324.131 88.7612 325.503 88.9124 326.805 89.3245C328.108 89.7366 329.317 90.4015 330.362 91.2813C331.408 92.161 332.27 93.2383 332.899 94.4514C333.527 95.6646 333.911 96.9898 334.027 98.3512V98.3512Z" fill="white"/>
<path d="M334.027 98.3513C334.92 107.595 323.92 113.447 316.7 107.525C315.606 106.616 314.703 105.498 314.044 104.237C313.384 102.976 312.982 101.596 312.859 100.179C312.736 98.761 312.896 97.333 313.329 95.9775C313.762 94.6219 314.459 93.3657 315.381 92.2814C321.471 85.2 333.323 89.0779 334.027 98.3513V98.3513ZM334.027 98.3513C333.224 89.2961 321.719 85.7851 316.036 92.8269C314.381 94.8707 313.582 97.4755 313.806 100.096C314.029 102.715 315.259 105.147 317.236 106.881C324.04 112.832 334.781 107.397 334.017 98.3513H334.027Z" fill="#263238"/>
<path d="M306.475 109.142C306.572 110.281 306.33 111.424 305.779 112.426C305.227 113.427 304.391 114.243 303.376 114.769C302.36 115.296 301.212 115.509 300.076 115.383C298.939 115.257 297.866 114.797 296.991 114.061C296.116 113.324 295.479 112.345 295.16 111.247C294.842 110.149 294.856 108.981 295.201 107.891C295.547 106.8 296.207 105.837 297.1 105.122C297.993 104.408 299.077 103.974 300.216 103.876C301.744 103.746 303.261 104.228 304.434 105.215C305.607 106.203 306.341 107.615 306.475 109.142Z" fill="white"/>
<path d="M306.475 109.142C306.557 110.139 306.39 111.14 305.989 112.056C305.589 112.972 304.967 113.775 304.18 114.391C303.393 115.008 302.465 115.42 301.479 115.589C300.494 115.759 299.481 115.681 298.533 115.363C297.585 115.045 296.731 114.496 296.048 113.767C295.364 113.037 294.872 112.149 294.616 111.183C294.36 110.216 294.348 109.201 294.581 108.228C294.814 107.256 295.285 106.357 295.952 105.611C296.741 104.74 297.767 104.118 298.903 103.82C300.04 103.521 301.239 103.56 302.355 103.931C303.47 104.302 304.453 104.99 305.185 105.909C305.916 106.829 306.364 107.942 306.475 109.112V109.142ZM306.475 109.142C305.602 101.833 295.029 102.804 295.446 110.134C296.289 117.394 306.871 116.531 306.475 109.142Z" fill="#263238"/>
<path d="M424.827 53.7697C425.467 59.0513 424.708 64.4084 422.627 69.3046C420.545 74.2008 417.214 78.4643 412.967 81.6682C408.719 84.8721 403.705 86.9039 398.425 87.5603C393.145 88.2167 387.786 87.4745 382.883 85.4082C380.5 88.5216 377.43 91.0426 373.912 92.7749C370.395 94.5072 366.525 95.404 362.604 95.3953C358.683 95.3867 354.817 94.4729 351.307 92.7251C347.797 90.9773 344.738 88.4428 342.368 85.319C341.258 85.6585 340.119 85.8975 338.966 86.0331C335.002 86.5158 330.982 85.839 327.395 84.0848C323.807 82.3306 320.804 79.574 318.751 76.1488C316.697 72.7235 315.68 68.7765 315.823 64.7853C315.966 60.7942 317.263 56.93 319.557 53.6606C315.073 47.9694 312.773 40.8624 313.071 33.6234C313.369 26.3844 316.247 19.4907 321.183 14.1877C326.12 8.88462 332.79 5.52186 339.989 4.70685C347.188 3.89184 354.442 5.67832 360.439 9.74358C363.249 6.23068 366.939 3.52464 371.134 1.9007C375.329 0.276766 379.879 -0.207132 384.322 0.498231C388.765 1.20359 392.942 3.07305 396.427 5.91645C399.913 8.75985 402.584 12.4758 404.167 16.6862C405.226 16.3255 406.32 16.0762 407.43 15.9423C410.809 15.529 414.233 16.1601 417.241 17.7508C420.25 19.3415 422.7 21.8154 424.261 24.8399C425.822 27.8644 426.419 31.2944 425.972 34.6684C425.525 38.0425 424.056 41.1988 421.762 43.7128C423.372 46.8566 424.41 50.2621 424.827 53.7697Z" fill="white"/>
<path d="M424.827 53.7697C425.469 59.0638 424.712 64.4337 422.63 69.3435C420.548 74.2533 417.215 78.5312 412.963 81.7502C408.712 84.9692 403.69 87.0166 398.399 87.6881C393.109 88.3595 387.735 87.6316 382.814 85.5769L383.022 85.5173C380.622 88.6649 377.528 91.216 373.981 92.972C370.434 94.7281 366.529 95.6417 362.571 95.6417C358.613 95.6417 354.708 94.7281 351.161 92.972C347.614 91.216 344.52 88.6649 342.12 85.5173L342.457 85.6264C340.909 86.103 339.306 86.3796 337.687 86.4496C320.211 87.5307 309.172 67.7542 319.219 53.4028V53.9383C304.243 35.1635 316.115 6.96654 339.958 4.34818C347.237 3.53437 354.567 5.35714 360.617 9.48572L360.211 9.55515C372.598 -5.90706 397.383 -1.92994 404.316 16.6267L404.128 16.5374C405.437 16.0889 406.802 15.8252 408.184 15.7539C411.526 15.5058 414.866 16.2666 417.771 17.9377C420.676 19.6089 423.013 22.1135 424.479 25.1274C425.945 28.1413 426.472 31.5257 425.993 34.8428C425.514 38.1598 424.05 41.2567 421.792 43.7327C423.412 46.864 424.444 50.266 424.836 53.7697H424.827ZM424.827 53.7697C424.4 50.2573 423.352 46.8486 421.732 43.7029C424.177 40.9747 425.65 37.5138 425.92 33.8605C426.191 30.2071 425.244 26.567 423.227 23.5085C421.211 20.45 418.239 18.1453 414.774 16.9541C411.31 15.763 407.549 15.7525 404.078 16.9242C397.264 -1.35469 372.816 -5.34174 360.667 9.98162L360.498 10.1998L360.26 10.0411C354.33 6.01234 347.148 4.25209 340.027 5.08211C316.859 7.75998 305.542 35.0842 319.914 53.3928L320.122 53.6606L319.933 53.9284C310.214 67.7046 320.806 86.7769 337.647 85.8149C339.29 85.7471 340.918 85.4636 342.487 84.9719C344.813 88.1039 347.834 90.6539 351.312 92.4214C354.79 94.189 358.631 95.1259 362.532 95.1585C366.433 95.1912 370.289 94.3188 373.796 92.6098C377.303 90.9008 380.366 88.4017 382.744 85.3091L382.834 85.2L382.953 85.2595C387.838 87.3188 393.178 88.0607 398.44 87.411C403.702 86.7612 408.701 84.7427 412.939 81.5568C417.177 78.371 420.505 74.1292 422.591 69.2551C424.677 64.3809 425.448 59.0449 424.827 53.7796V53.7697Z" fill="#263238"/>
<path d="M373.025 52.1035L372.777 56.2988C372.765 56.7168 372.668 57.128 372.491 57.5072C372.315 57.8863 372.063 58.2255 371.751 58.504C371.439 58.7826 371.074 58.9945 370.677 59.1269C370.28 59.2594 369.861 59.3095 369.444 59.2742C368.608 59.2256 367.826 58.8476 367.268 58.2229C366.71 57.5982 366.423 56.7779 366.469 55.9418L366.846 49.2372C366.846 49.1678 366.915 49.1777 366.925 49.1083C366.935 49.0388 366.826 49.0785 366.826 48.9793C366.894 48.1508 367.278 47.3801 367.898 46.8264C368.518 46.2726 369.327 45.9782 370.158 46.0039C371.124 46.0882 372.097 45.9777 373.02 45.6788C373.942 45.3799 374.795 44.8988 375.528 44.2641C376.261 43.6293 376.859 42.8538 377.286 41.9836C377.714 41.1133 377.962 40.1661 378.017 39.198C378.071 38.23 377.931 37.2608 377.603 36.3481C377.276 35.4354 376.769 34.5977 376.112 33.8847C375.455 33.1717 374.661 32.5979 373.778 32.1975C372.895 31.797 371.941 31.578 370.972 31.5534C369.719 31.4793 368.47 31.7364 367.349 32.2988C366.227 32.8611 365.274 33.709 364.584 34.7569C364.366 35.1265 364.076 35.448 363.73 35.702C363.384 35.956 362.99 36.1373 362.572 36.2348C362.154 36.3323 361.721 36.344 361.298 36.2692C360.876 36.1945 360.473 36.0348 360.113 35.7999C359.754 35.565 359.447 35.2596 359.209 34.9024C358.971 34.5451 358.808 34.1434 358.73 33.7214C358.652 33.2994 358.66 32.866 358.755 32.4473C358.849 32.0287 359.027 31.6334 359.278 31.2856C360.514 29.4055 362.197 27.8618 364.177 26.7934C366.157 25.725 368.371 25.1652 370.621 25.1645C372.871 25.1638 375.085 25.722 377.066 26.7892C379.046 27.8563 380.731 29.3988 381.967 31.2781C383.204 33.1574 383.954 35.3145 384.151 37.5557C384.348 39.7968 383.984 42.0516 383.094 44.1176C382.203 46.1835 380.813 47.9957 379.049 49.3914C377.284 50.7871 375.2 51.7224 372.985 52.1134L373.025 52.1035ZM372.231 66.2268L372.162 67.3872C372.148 67.8047 372.05 68.2152 371.873 68.5937C371.697 68.9722 371.445 69.3108 371.133 69.5891C370.822 69.8673 370.457 70.0793 370.061 70.2123C369.665 70.3453 369.246 70.3964 368.829 70.3626C367.993 70.3089 367.212 69.928 366.655 69.3023C366.098 68.6767 365.81 67.8567 365.854 67.0202L365.923 65.8598C365.982 65.0276 366.363 64.251 366.985 63.6954C367.608 63.1397 368.422 62.8488 369.256 62.8844C369.672 62.9032 370.081 63.0053 370.458 63.1845C370.834 63.3638 371.171 63.6166 371.448 63.9281C371.726 64.2396 371.938 64.6035 372.072 64.9983C372.207 65.3931 372.261 65.8108 372.231 66.2268V66.2268Z" fill="#6DDAD3"/>
<defs>
<linearGradient id="paint0_linear_7_2057" x1="228.574" y1="0" x2="352.279" y2="434.192" gradientUnits="userSpaceOnUse">
<stop stop-color="white" stop-opacity="0.6"/>
<stop offset="1" stop-color="white" stop-opacity="0.2"/>
</linearGradient>
</defs>
</svg>
